<svg width="20" height="20" viewBox="0 0 20 20" xmlns="http://www.w3.org/2000/svg">
    <path d="M19.5636 6.96067C19.734 6.59003 19.877 6.21718 19.9771 5.84214C20.0021 5.74914 20.0067 5.65184 19.9906 5.5569C19.9744 5.46197 19.9379 5.37164 19.8836 5.29214C19.8293 5.21263 19.7584 5.14581 19.6758 5.09628C19.5932 5.04674 19.5009 5.01566 19.4052 5.00516C19.0719 4.96667 18.7695 5.20093 18.6771 5.52208C18.5341 6.02251 18.0546 6.89248 17.7664 7.39401C17.6161 7.66281 17.4208 7.90387 17.189 8.1067L17.1857 8.11C15.9715 9.51559 14.4834 10.567 12.6456 11.1631C11.9249 11.3904 11.176 11.5163 10.4206 11.5371C9.34373 11.586 8.26697 11.438 7.24319 11.1005C6.27914 10.7714 5.37501 10.2877 4.56618 9.66847C4.52019 9.61082 4.46479 9.56137 4.40231 9.52219C4.34732 9.4892 4.29892 9.454 4.24613 9.41881C4.13172 9.32527 4.01879 9.22994 3.90738 9.13285C3.23758 8.54444 2.68326 8.02861 2.16964 7.30492C2.14764 7.31922 2.10365 7.17624 2.08165 7.19054C1.51524 6.27327 1.32276 5.52648 1.31947 5.51328C1.27819 5.34075 1.17007 5.19167 1.01888 5.09886C0.867689 5.00604 0.685822 4.97708 0.513285 5.01836C0.340747 5.05963 0.191673 5.16776 0.0988558 5.31895C0.00603909 5.47013 -0.0229169 5.652 0.0183579 5.82454C0.0337557 5.88943 0.247124 6.7374 0.871831 7.78445C0.871831 7.78445 0.869632 7.78445 0.868532 7.78665C0.87953 7.80534 0.892728 7.82184 0.904827 7.84054C1.21498 8.35196 1.63292 8.90518 2.16744 9.4408L0.579275 10.8508C0.457222 10.9716 0.386172 11.1347 0.380762 11.3064C0.375352 11.4781 0.435995 11.6453 0.550196 11.7736C0.664397 11.9019 0.823458 11.9815 0.994607 11.996C1.16576 12.0105 1.33596 11.9589 1.47014 11.8516L3.15289 10.3548C3.75035 10.8607 4.39912 11.3026 5.08861 11.6735C5.1436 11.7032 5.19859 11.7285 5.25358 11.7571L4.18674 13.6884C4.12989 13.7901 4.10068 13.905 4.10202 14.0216C4.10337 14.1382 4.13521 14.2524 4.19438 14.3528C4.25356 14.4532 4.338 14.5364 4.43932 14.5941C4.54063 14.6518 4.65528 14.6819 4.77185 14.6815C4.89161 14.6815 5.00917 14.6493 5.11227 14.5884C5.21537 14.5274 5.30025 14.44 5.35807 14.3351L6.4799 12.3026C7.39276 12.6424 8.33862 12.8525 9.33068 12.924V14.632C9.33768 14.8048 9.41126 14.9682 9.536 15.088C9.66074 15.2078 9.82698 15.2747 9.99993 15.2747C10.1729 15.2747 10.3391 15.2078 10.4639 15.088C10.5886 14.9682 10.6622 14.8048 10.6692 14.632V12.9361C11.3952 12.8977 12.1143 12.7744 12.8117 12.5687C13.0943 12.4841 13.3682 12.3895 13.6365 12.2894L14.7672 14.334C14.8094 14.411 14.8665 14.4789 14.9351 14.5338C15.0037 14.5887 15.0825 14.6295 15.167 14.6538C15.2514 14.6781 15.3398 14.6855 15.4271 14.6756C15.5144 14.6656 15.5989 14.6385 15.6756 14.5957C15.8309 14.5097 15.9456 14.3656 15.9947 14.1951C16.0438 14.0246 16.0232 13.8415 15.9374 13.6862L14.8651 11.7461C15.6123 11.3589 16.3102 10.8833 16.9437 10.3295L18.6551 11.8505C18.7207 11.9094 18.7973 11.9547 18.8805 11.9837C18.9636 12.0128 19.0518 12.0251 19.1397 12.0199C19.2277 12.0146 19.3137 11.992 19.3929 11.9533C19.4721 11.9147 19.5428 11.8606 19.601 11.7945C19.6593 11.7286 19.7042 11.6519 19.7329 11.5687C19.7616 11.4855 19.7737 11.3975 19.7684 11.3097C19.763 11.2218 19.7405 11.1359 19.7019 11.0568C19.6634 10.9777 19.6097 10.9069 19.5438 10.8486L17.8995 9.39021C18.3757 8.86229 18.8124 8.27937 19.216 7.63927C19.3592 7.42834 19.4762 7.20085 19.5647 6.96177L19.5636 6.96067Z"/>
</svg>
