<svg width="18" height="18" viewBox="0 0 18 18" xmlns="http://www.w3.org/2000/svg">
    <path d="M13.62 4.588a11.13 11.13 0 0 1 2.848 2.168c.498.53.939 1.102 1.313 1.726.297.491.292.985-.015 1.473-1.467 2.329-3.517 3.895-6.153 4.679a9.171 9.171 0 0 1-3.172.346c-1.468-.086-2.832-.5-4.123-1.191a10.916 10.916 0 0 1-2.907-2.26 9.659 9.659 0 0 1-1.196-1.6c-.295-.499-.285-.997.023-1.49 1.08-1.722 2.534-3.034 4.338-3.957a9.737 9.737 0 0 1 3.162-.993c.429-.057.862-.078 1.388-.083a9.777 9.777 0 0 1 4.494 1.182Zm-9.611 1.78c-1.045.738-1.893 1.665-2.61 2.719-.072.108-.04.173.02.261a10.994 10.994 0 0 0 1.784 2.041c.935.819 1.97 1.459 3.15 1.856.967.32 1.984.46 3.002.414a7.69 7.69 0 0 0 2.101-.353c2.182-.707 3.85-2.086 5.125-3.971.067-.098.056-.175-.006-.268a9.97 9.97 0 0 0-2.579-2.697c-.321-.228-.649-.45-1.024-.612 1.072 2.108.481 4.395-1.215 5.737-1.48 1.17-3.735 1.238-5.266.187-1.547-1.06-2.75-3.391-1.448-5.951-.357.191-.702.405-1.034.637Zm2.043 1.813a.462.462 0 0 0 .492.185c.205-.056.33-.218.34-.456.05-.972.54-1.627 1.436-1.984.209-.085.43-.098.655-.108.302-.015.477-.2.472-.473-.006-.274-.193-.441-.498-.446-.134 0-.268.01-.4.029-1.386.18-2.522 1.44-2.565 2.866 0 .12-.02.261.068.387Z"/>
</svg>