<svg xmlns="http://www.w3.org/2000/svg" width="142" height="142" viewBox="0 0 142 142">
    <path d="M71.38 3.667V.5a3.167 3.167 0 1 0-.025 6.333l.026-3.166Zm19.09 6.232 3.153-.342V9.53L90.47 9.9Zm14.477 18.24 1.267 2.913v-.025l-1.267-2.888Zm-12.565 90.579 2.9 1.279v-.012l-2.9-1.267Zm-1.913 13.325 3.142.368v-.026l-3.142-.342ZM51 121.517l3.141-.342v-.012l-3.141.354Zm-10.577-8.398-.354-3.141h-.026l.38 3.141Zm-2.736.735-1.266-2.913v.012l1.266 2.901ZM6.895 90.699l-3.028.925v.013l3.04-.938h-.012Zm10.462-27.398-1.874 2.546.012.013 1.862-2.559Zm-8.575-6.308-1.9 2.534.025.012 1.875-2.546Zm42.205-36.568 3.142.38v-.038l-3.142-.342ZM71.381 3.667l.05 3.166A3.166 3.166 0 1 0 71.381.5v3.167Zm-.026 3.166A69.66 69.66 0 0 1 85.77 8.505l1.355-6.181A75.752 75.752 0 0 0 71.42.5l-.064 6.333ZM85.77 8.505a2.027 2.027 0 0 1 1.57 1.761l6.283-.735a8.36 8.36 0 0 0-2.09-4.64 8.395 8.395 0 0 0-4.408-2.567L85.77 8.505Zm1.57 1.736 1.153 10.538 6.308-.684-1.165-10.538-6.295.684Zm1.166 10.551c.76 6.98 7.068 12.008 14.06 11.235l-.709-6.295a6.397 6.397 0 0 1-4.697-1.365 6.369 6.369 0 0 1-2.359-4.272l-6.295.697Zm14.047 11.235a12.663 12.663 0 0 0 3.674-.988l-2.534-5.801c-.58.25-1.208.413-1.836.481l.696 6.308Zm3.674-.988 9.677-4.243-2.546-5.801-9.665 4.243 2.534 5.801Zm9.677-4.243a2.026 2.026 0 0 1 2.28.469l4.623-4.332a8.36 8.36 0 0 0-9.462-1.938l2.559 5.801Zm2.28.469a64.511 64.511 0 0 1 14.503 24.953l6.055-1.875a70.826 70.826 0 0 0-15.922-27.41l-4.623 4.332h-.013Zm14.503 24.953a2.024 2.024 0 0 1-.734 2.217l3.774 5.092a8.362 8.362 0 0 0 2.965-4.107 8.403 8.403 0 0 0 .05-5.077l-6.055 1.862v.013Zm-.722 2.217-8.575 6.32 3.749 5.092 8.563-6.32-3.737-5.092Zm-8.575 6.32a12.703 12.703 0 0 0-2.723 17.746l5.104-3.736a6.405 6.405 0 0 1-1.159-4.739 6.37 6.37 0 0 1 2.515-4.166l-3.75-5.105h.013Zm-2.723 17.746a12.557 12.557 0 0 0 2.723 2.711l3.749-5.092a6.292 6.292 0 0 1-1.355-1.355l-5.117 3.736Zm2.723 2.711 8.588 6.333 3.749-5.104-8.588-6.321-3.749 5.092Zm8.588 6.333a2.032 2.032 0 0 1 .722 2.217l6.055 1.85a8.362 8.362 0 0 0-3.028-9.171l-3.762 5.092.013.012Zm.722 2.217a64.42 64.42 0 0 1-14.491 24.941l4.624 4.332a70.876 70.876 0 0 0 15.922-27.424l-6.055-1.849Zm-14.491 24.941a2 2 0 0 1-2.28.468l-2.558 5.802a8.338 8.338 0 0 0 5.033.537 8.383 8.383 0 0 0 4.429-2.475l-4.624-4.332Zm-2.28.468-9.728-4.256-2.533 5.802 9.715 4.256 2.534-5.802h.012Zm-9.715-4.256a12.69 12.69 0 0 0-13.889 2.47 12.682 12.682 0 0 0-2.831 4.066l5.801 2.534a6.351 6.351 0 0 1 3.503-3.366 6.332 6.332 0 0 1 4.857.098l2.559-5.802Zm-16.72 6.536a12.388 12.388 0 0 0-1 3.724l6.307.659a6.15 6.15 0 0 1 .494-1.837l-5.788-2.558-.013.012Zm-.988 3.699-1.165 10.539 6.295.709 1.165-10.539-6.295-.709Zm-1.165 10.526a2.026 2.026 0 0 1-1.546 1.761l1.457 6.156a8.397 8.397 0 0 0 4.325-2.589 8.338 8.338 0 0 0 2.034-4.593l-6.27-.735Zm-1.546 1.761a62.519 62.519 0 0 1-28.956 0l-1.482 6.156a68.89 68.89 0 0 0 31.895 0l-1.457-6.156Zm-28.956 0a2.016 2.016 0 0 1-1.532-1.736l-6.308.684c.38 3.522 2.951 6.397 6.371 7.22l1.47-6.168Zm-1.532-1.736-1.166-10.526-6.282.684 1.14 10.526 6.308-.684Zm-1.166-10.538a12.718 12.718 0 0 0-14.072-11.185l.722 6.283a6.382 6.382 0 0 1 4.695 1.342 6.358 6.358 0 0 1 2.373 4.256l6.282-.696Zm-14.098-11.185c-1.248.147-2.469.475-3.622.975l2.546 5.802a6.52 6.52 0 0 1 1.849-.494l-.773-6.283Zm-3.622.975-9.69 4.256 2.533 5.802 9.715-4.256-2.558-5.802Zm-9.703 4.256c-.379.168-.8.215-1.206.133a2.035 2.035 0 0 1-1.074-.589l-4.623 4.307c2.406 2.609 6.219 3.382 9.462 1.951l-2.559-5.802Zm-2.28-.468A64.563 64.563 0 0 1 9.935 89.762l-6.068 1.875a70.776 70.776 0 0 0 15.96 27.436l4.611-4.332ZM9.935 89.762a1.987 1.987 0 0 1 .007-1.226c.132-.402.386-.753.727-1.003l-3.749-5.08a8.36 8.36 0 0 0-2.983 4.108 8.36 8.36 0 0 0-.07 5.076l6.068-1.85v-.025Zm.734-2.23 8.576-6.32-3.75-5.092-8.575 6.333 3.75 5.08Zm8.576-6.32c5.649-4.142 6.89-12.071 2.736-17.733l-5.105 3.749a6.347 6.347 0 0 1 .3 7.055 6.393 6.393 0 0 1-1.68 1.837l3.749 5.092Zm2.736-17.733a12.356 12.356 0 0 0-2.749-2.736l-3.737 5.117c.52.377.978.835 1.356 1.355l5.13-3.736Zm-2.736-2.724-8.576-6.308-3.762 5.092 8.588 6.321 3.75-5.105Zm-8.563-6.308a2.026 2.026 0 0 1-.723-.997c-.132-.4-.148-.83-.024-1.232L3.88 50.343a8.36 8.36 0 0 0 3.015 9.196l3.774-5.092h.013Zm-.747-2.229A64.613 64.613 0 0 1 24.45 27.265l-4.636-4.345A70.968 70.968 0 0 0 3.88 50.343l6.055 1.875ZM24.45 27.265a1.99 1.99 0 0 1 1.061-.592c.41-.082.836-.034 1.219.136l2.558-5.802a8.36 8.36 0 0 0-5.035-.547 8.395 8.395 0 0 0-4.44 2.46l4.624 4.357.013-.012Zm2.28-.456 9.677 4.243 2.533-5.801-9.652-4.244-2.558 5.802Zm9.677 4.243c6.46 2.8 13.971-.165 16.758-6.625l-5.801-2.508a6.41 6.41 0 0 1-8.436 3.332l-2.521 5.801Zm16.745-6.612c.507-1.178.836-2.407.976-3.635l-6.283-.76a6.638 6.638 0 0 1-.507 1.862l5.814 2.533Zm.976-3.673 1.178-10.514-6.296-.722-1.165 10.539 6.295.71-.012-.013Zm1.178-10.514a2.01 2.01 0 0 1 .49-1.132 2.027 2.027 0 0 1 1.068-.628L55.497 2.31a8.36 8.36 0 0 0-6.486 7.22l6.283.735.013-.013Zm1.558-1.76a71.667 71.667 0 0 1 14.566-1.66L71.343.5a78.124 78.124 0 0 0-15.846 1.811l1.368 6.182ZM71.292 47.1a23.877 23.877 0 0 0-23.877 23.876h6.334c0-9.69 7.853-17.543 17.543-17.543v-6.333ZM47.415 70.977c0 13.199 10.691 23.89 23.877 23.89v-6.334c-9.69 0-17.543-7.853-17.543-17.556h-6.334Zm23.877 23.89a23.879 23.879 0 0 0 23.89-23.89h-6.334c0 9.703-7.853 17.556-17.556 17.556v6.334Zm23.89-23.89a23.877 23.877 0 0 0-23.89-23.876v6.333c9.703 0 17.556 7.853 17.556 17.543h6.333Z"/>
</svg>